<?xml version="1.0" encoding="UTF-8" standalone="no"?>
<!DOCTYPE svg  PUBLIC '-//W3C//DTD SVG 1.1 Basic//EN'  'http://www.w3.org/Graphics/SVG/1.1/DTD/svg11-basic.dtd'>
<svg xmlns="http://www.w3.org/2000/svg" xml:space="preserve" baseProfile="basic" version="1.1" y="0px" x="0px" xmlns:xlink="http://www.w3.org/1999/xlink" viewBox="0 0 187.8 40.7">
		<circle cy="6.5" cx="134.1" r="3.8" fill="#F04B23"/>
		<path d="m137.1 35.9c0 1.5-1 2.8-2.4 3.1-1.9 0.4-3.6-1.1-3.6-2.9v-17.9c0-3.3 2.7-6 6-6v23.7z" fill="#ccc"/>
		<path d="m126.6 35.9c0 1.5-1 2.8-2.4 3.1-1.9 0.4-3.6-1.1-3.6-2.9v-28.7c0-3.3 2.7-6 6-6v34.5z" fill="#ccc"/>
<path d="m182 27.8h0.8c1.6 0 2.9-1.3 2.8-3 0-0.9-0.1-1.6-0.2-2-1.1-6.6-6-10.6-11.8-10.6-6.7 0-12.1 5.2-12.1 13.5s5.4 13.5 12.1 13.5c4.4 0 8.3-2.3 10.4-6.3l-1.7-0.9c-1.6-0.8-3.5-0.5-4.8 0.7-1.1 1-2.4 1.5-3.8 1.5-3 0-5.6-2.3-6.2-6.4h14.5zm-8.4-10.6c2.8 0 5.2 2 6.1 5.5h-12.1c0.8-3.6 3.2-5.5 6-5.5z" fill="#ccc"/>
			<path d="m4.4 38.9c-0.7 0-1.3-0.2-1.8-0.7s-0.7-1.1-0.7-1.9v-21.3c0-0.8 0.2-1.4 0.7-1.9 1-0.9 2.5-0.9 3.5 0 0.5 0.5 0.7 1.1 0.7 1.9v0.8c0.5-0.7 1.1-1.3 1.8-1.9 1.1-0.9 2.2-1.4 3.4-1.5 0.7 0 1.4 0.2 1.9 0.7 0.6 0.5 0.9 1.1 0.9 1.8 0 0.9-0.3 1.5-0.9 1.9-0.5 0.4-1.3 0.7-2.3 0.9-0.9 0.2-1.5 0.4-1.7 0.5-2.1 1.1-3.1 3.1-3.1 5.9v12.1c0 0.8-0.2 1.4-0.7 1.9-0.4 0.6-1 0.8-1.7 0.8z" fill="#010101"/>
			<path d="m27 38.9c-2.1 0-4-0.4-5.5-1.2-1.6-0.8-2.8-1.9-3.8-3.2-0.9-1.3-1.6-2.7-2.1-4.3-0.4-1.5-0.7-3-0.7-4.6v-0.2c0-0.1 0-0.1 0.1-0.1 0.1-2.1 0.6-4.2 1.5-6.2s2.2-3.6 3.9-4.8 3.7-1.9 6.1-1.9c2.2 0 4.3 0.6 6 1.8s3.1 2.8 4 4.8 1.4 4.1 1.4 6.2c0 1.6-1 2.5-2.7 2.5h-15.1c0.1 1.4 0.4 2.6 1 3.6 0.6 1.1 1.5 1.9 2.6 2.4s2.3 0.8 3.6 0.8c2.3 0 4.5-0.8 6.4-2.5 0.8-0.6 1.4-0.9 1.8-0.9 0.6 0 1.1 0.2 1.4 0.7 0.3 0.4 0.5 0.9 0.5 1.5s-0.2 1.2-0.7 1.8c-1 1-2.3 1.9-4.1 2.7-1.7 0.7-3.6 1.1-5.6 1.1zm-6.9-15.2h12.9c-0.1-2-0.7-3.6-1.7-4.8-1.1-1.3-2.6-2-4.5-2-2 0-3.5 0.6-4.7 1.9-1.2 1.1-1.8 2.8-2 4.9z"/>
			<path d="m59.8 38.9c-0.6 0-1.2-0.2-1.7-0.7s-0.8-1.1-0.8-1.8c-0.4 0.5-1 1-1.6 1.4-1.1 0.7-2.5 1.1-4.3 1.1-2.3 0-4.3-0.6-6.1-1.7-1.7-1.1-3.1-2.7-4-4.7s-1.4-4.2-1.5-6.7c0-1.8 0.3-3.5 0.8-5.1s1.3-3.1 2.2-4.3c1-1.2 2.2-2.2 3.5-2.9 1.4-0.7 2.9-1.1 4.5-1.1 2.6 0 4.7 0.9 6.4 2.7v-11.2c0-0.8 0.2-1.4 0.7-1.8s1.1-0.7 1.7-0.7c0.7 0 1.3 0.2 1.8 0.7s0.7 1.1 0.7 1.9v32.3c0 0.8-0.3 1.4-0.8 1.9-0.2 0.5-0.8 0.7-1.5 0.7zm-8.4-22c-1.5 0-2.6 0.4-3.6 1.3s-1.7 2-2.1 3.3c-0.5 1.3-0.7 2.7-0.8 4.2 0 2.4 0.5 4.5 1.6 6.3 1 1.7 2.5 2.5 4.5 2.6 1.6 0 2.9-0.4 3.9-1.2s1.7-1.9 2.2-3.2c0.4-1.3 0.7-2.8 0.7-4.3 0-1.7-0.3-3.3-0.8-4.7-0.6-1.3-1.3-2.4-2.3-3.1-1-0.9-2-1.2-3.3-1.2z"/>
			<path d="m86 38.9c-0.6 0-1.2-0.2-1.7-0.7s-0.8-1.1-0.8-1.8c-0.4 0.5-1 1-1.6 1.4-1.1 0.7-2.5 1.1-4.3 1.1-2.3 0-4.3-0.6-6.1-1.7-1.7-1.1-3.1-2.7-4-4.7s-1.4-4.2-1.5-6.7c0-1.8 0.3-3.5 0.8-5.1s1.3-3.1 2.2-4.3c1-1.2 2.2-2.2 3.5-2.9 1.4-0.7 2.9-1.1 4.5-1.1 2.6 0 4.7 0.9 6.4 2.7v-11.2c0-0.8 0.3-1.4 0.7-1.8 0.5-0.4 1.1-0.7 1.7-0.7 0.7 0 1.3 0.2 1.8 0.7 0.5 0.4 0.7 1.1 0.7 1.9v32.3c0 0.8-0.3 1.4-0.8 1.9-0.2 0.5-0.8 0.7-1.5 0.7zm-8.4-22c-1.4 0-2.6 0.4-3.6 1.3s-1.7 2-2.1 3.3c-0.5 1.3-0.7 2.7-0.8 4.2 0 2.4 0.5 4.5 1.6 6.3 1 1.7 2.5 2.5 4.5 2.6 1.6 0 2.9-0.4 3.9-1.2s1.7-1.9 2.2-3.2c0.4-1.3 0.7-2.8 0.7-4.3 0-1.7-0.3-3.3-0.8-4.7-0.6-1.3-1.3-2.4-2.3-3.1-1-0.9-2.1-1.2-3.3-1.2z"/>
			<path d="m108.3 38.9c-0.7 0-1.2-0.2-1.7-0.7-0.5-0.4-0.7-1.1-0.7-1.9v-19.2h-1.4c-0.7 0-1.3-0.2-1.7-0.6s-0.7-0.9-0.8-1.5c0.1-1.5 1-2.3 2.5-2.3h1.4v-5.2c0-0.7 0.2-1.3 0.7-1.8 0.5-0.4 1-0.6 1.7-0.6s1.3 0.2 1.8 0.6 0.8 1 0.8 1.8v5h1.4c0.7 0 1.3 0.2 1.7 0.6s0.6 1 0.6 1.6-0.2 1.1-0.6 1.5-0.9 0.7-1.6 0.7h-1.6v19.3c0 0.8-0.3 1.4-0.8 1.8-0.4 0.7-1 0.9-1.7 0.9z" fill="#010101"/>
	<path d="m95.8 10.7c-2.5 0-4.5-2-4.5-4.6 0-2.5 2-4.5 4.5-4.5s4.6 2 4.6 4.5-2.1 4.6-4.6 4.6z" fill="#010101"/>
	<circle cy="6.1" cx="95.8" r="2.2" fill="#fff"/>
		<path d="m95.8 38.9c-1.4 0-2.5-1.1-2.5-2.5v-21.6c0-1.4 1.1-2.5 2.5-2.5s2.5 1.1 2.5 2.5v21.7c0 1.3-1.1 2.4-2.5 2.4z" fill="#010101"/>
<path d="m153.5 37.2l9.5-24.7c-2.8-1.1-6 0.3-7.1 3.2l-5 12.9-5.8-14.7c-0.5-1.4-2.2-2.1-3.6-1.6s-2.1 2.2-1.6 3.6l8.4 21.3c1.1 2.5 4.3 2.3 5.2 0z" fill="#ccc"/>
</svg>
